<mxfile host="Electron" modified="2024-04-29T22:20:36.045Z" agent="Mozilla/5.0 (Windows NT 10.0; Win64; x64) AppleWebKit/537.36 (KHTML, like Gecko) draw.io/22.0.3 Chrome/114.0.5735.289 Electron/25.8.4 Safari/537.36" etag="nzIqaSH0tePDp0Cy0P08" version="22.0.3" type="device">
  <diagram id="C5RBs43oDa-KdzZeNtuy" name="Page-1">
    <mxGraphModel dx="1021" dy="1654" grid="1" gridSize="10" guides="1" tooltips="1" connect="1" arrows="1" fold="1" page="1" pageScale="1" pageWidth="827" pageHeight="1169" math="0" shadow="0">
      <root>
        <mxCell id="WIyWlLk6GJQsqaUBKTNV-0" />
        <mxCell id="WIyWlLk6GJQsqaUBKTNV-1" parent="WIyWlLk6GJQsqaUBKTNV-0" />
        <mxCell id="vkgq-PPfLMgE2KBFRVzU-0" value="usuario" style="rounded=0;whiteSpace=wrap;html=1;" parent="WIyWlLk6GJQsqaUBKTNV-1" vertex="1">
          <mxGeometry x="220" y="170" width="130" height="40" as="geometry" />
        </mxCell>
        <mxCell id="vkgq-PPfLMgE2KBFRVzU-1" value="" style="endArrow=none;html=1;rounded=0;exitX=0.173;exitY=0.99;exitDx=0;exitDy=0;exitPerimeter=0;" parent="WIyWlLk6GJQsqaUBKTNV-1" source="vkgq-PPfLMgE2KBFRVzU-0" target="vkgq-PPfLMgE2KBFRVzU-2" edge="1">
          <mxGeometry width="50" height="50" relative="1" as="geometry">
            <mxPoint x="390" y="340" as="sourcePoint" />
            <mxPoint x="230" y="270" as="targetPoint" />
          </mxGeometry>
        </mxCell>
        <mxCell id="vkgq-PPfLMgE2KBFRVzU-2" value="nombre" style="text;html=1;strokeColor=none;fillColor=none;align=center;verticalAlign=middle;whiteSpace=wrap;rounded=0;" parent="WIyWlLk6GJQsqaUBKTNV-1" vertex="1">
          <mxGeometry x="200" y="255" width="60" height="30" as="geometry" />
        </mxCell>
        <mxCell id="vkgq-PPfLMgE2KBFRVzU-3" value="" style="endArrow=none;html=1;rounded=0;exitX=0.689;exitY=1.065;exitDx=0;exitDy=0;exitPerimeter=0;" parent="WIyWlLk6GJQsqaUBKTNV-1" source="vkgq-PPfLMgE2KBFRVzU-0" target="vkgq-PPfLMgE2KBFRVzU-4" edge="1">
          <mxGeometry width="50" height="50" relative="1" as="geometry">
            <mxPoint x="311" y="229" as="sourcePoint" />
            <mxPoint x="300" y="270" as="targetPoint" />
          </mxGeometry>
        </mxCell>
        <mxCell id="vkgq-PPfLMgE2KBFRVzU-4" value="campeon" style="text;html=1;strokeColor=none;fillColor=none;align=center;verticalAlign=middle;whiteSpace=wrap;rounded=0;" parent="WIyWlLk6GJQsqaUBKTNV-1" vertex="1">
          <mxGeometry x="280" y="255" width="60" height="30" as="geometry" />
        </mxCell>
        <mxCell id="vkgq-PPfLMgE2KBFRVzU-5" value="" style="endArrow=none;html=1;rounded=0;exitX=1;exitY=1;exitDx=0;exitDy=0;" parent="WIyWlLk6GJQsqaUBKTNV-1" source="vkgq-PPfLMgE2KBFRVzU-0" target="vkgq-PPfLMgE2KBFRVzU-6" edge="1">
          <mxGeometry width="50" height="50" relative="1" as="geometry">
            <mxPoint x="395" y="220" as="sourcePoint" />
            <mxPoint x="384" y="261" as="targetPoint" />
          </mxGeometry>
        </mxCell>
        <mxCell id="vkgq-PPfLMgE2KBFRVzU-6" value="subcampeon" style="text;html=1;strokeColor=none;fillColor=none;align=center;verticalAlign=middle;whiteSpace=wrap;rounded=0;" parent="WIyWlLk6GJQsqaUBKTNV-1" vertex="1">
          <mxGeometry x="354" y="246" width="60" height="30" as="geometry" />
        </mxCell>
        <mxCell id="vkgq-PPfLMgE2KBFRVzU-8" value="predice" style="rhombus;whiteSpace=wrap;html=1;" parent="WIyWlLk6GJQsqaUBKTNV-1" vertex="1">
          <mxGeometry x="460" y="165" width="60" height="50" as="geometry" />
        </mxCell>
        <mxCell id="vkgq-PPfLMgE2KBFRVzU-9" value="" style="endArrow=none;html=1;rounded=0;exitX=1;exitY=0.5;exitDx=0;exitDy=0;entryX=0;entryY=0.5;entryDx=0;entryDy=0;" parent="WIyWlLk6GJQsqaUBKTNV-1" source="vkgq-PPfLMgE2KBFRVzU-0" target="vkgq-PPfLMgE2KBFRVzU-8" edge="1">
          <mxGeometry width="50" height="50" relative="1" as="geometry">
            <mxPoint x="390" y="130" as="sourcePoint" />
            <mxPoint x="440" y="80" as="targetPoint" />
          </mxGeometry>
        </mxCell>
        <mxCell id="vkgq-PPfLMgE2KBFRVzU-10" value="" style="endArrow=none;html=1;rounded=0;exitX=1;exitY=0.5;exitDx=0;exitDy=0;" parent="WIyWlLk6GJQsqaUBKTNV-1" edge="1">
          <mxGeometry width="50" height="50" relative="1" as="geometry">
            <mxPoint x="520" y="189.5" as="sourcePoint" />
            <mxPoint x="590" y="190" as="targetPoint" />
          </mxGeometry>
        </mxCell>
        <mxCell id="NURok4i2XgR6PJyntMXO-3" value="partido" style="rounded=0;whiteSpace=wrap;html=1;" parent="WIyWlLk6GJQsqaUBKTNV-1" vertex="1">
          <mxGeometry x="585" y="168.5" width="130" height="43" as="geometry" />
        </mxCell>
        <mxCell id="NURok4i2XgR6PJyntMXO-5" value="" style="endArrow=none;html=1;rounded=0;exitX=1;exitY=0.5;exitDx=0;exitDy=0;" parent="WIyWlLk6GJQsqaUBKTNV-1" edge="1" source="NURok4i2XgR6PJyntMXO-3">
          <mxGeometry width="50" height="50" relative="1" as="geometry">
            <mxPoint x="720" y="190" as="sourcePoint" />
            <mxPoint x="750" y="220" as="targetPoint" />
          </mxGeometry>
        </mxCell>
        <mxCell id="NURok4i2XgR6PJyntMXO-6" value="fecha" style="text;html=1;strokeColor=none;fillColor=none;align=center;verticalAlign=middle;whiteSpace=wrap;rounded=0;" parent="WIyWlLk6GJQsqaUBKTNV-1" vertex="1">
          <mxGeometry x="736" y="204" width="60" height="30" as="geometry" />
        </mxCell>
        <mxCell id="NURok4i2XgR6PJyntMXO-7" value="" style="endArrow=none;html=1;rounded=0;exitX=1.008;exitY=0.362;exitDx=0;exitDy=0;exitPerimeter=0;" parent="WIyWlLk6GJQsqaUBKTNV-1" source="NURok4i2XgR6PJyntMXO-3" target="NURok4i2XgR6PJyntMXO-8" edge="1">
          <mxGeometry width="50" height="50" relative="1" as="geometry">
            <mxPoint x="784" y="2" as="sourcePoint" />
            <mxPoint x="740" y="169" as="targetPoint" />
          </mxGeometry>
        </mxCell>
        <mxCell id="NURok4i2XgR6PJyntMXO-8" value="hora" style="text;html=1;strokeColor=none;fillColor=none;align=center;verticalAlign=middle;whiteSpace=wrap;rounded=0;" parent="WIyWlLk6GJQsqaUBKTNV-1" vertex="1">
          <mxGeometry x="743" y="176" width="60" height="30" as="geometry" />
        </mxCell>
        <mxCell id="NURok4i2XgR6PJyntMXO-9" value="" style="endArrow=none;html=1;rounded=0;" parent="WIyWlLk6GJQsqaUBKTNV-1" edge="1">
          <mxGeometry width="50" height="50" relative="1" as="geometry">
            <mxPoint x="610" y="168.5" as="sourcePoint" />
            <mxPoint x="610" y="130" as="targetPoint" />
          </mxGeometry>
        </mxCell>
        <mxCell id="NURok4i2XgR6PJyntMXO-10" value="pais1" style="text;html=1;strokeColor=none;fillColor=none;align=center;verticalAlign=middle;whiteSpace=wrap;rounded=0;" parent="WIyWlLk6GJQsqaUBKTNV-1" vertex="1">
          <mxGeometry x="580" y="108" width="60" height="30" as="geometry" />
        </mxCell>
        <mxCell id="NURok4i2XgR6PJyntMXO-12" value="pais2" style="text;html=1;strokeColor=none;fillColor=none;align=center;verticalAlign=middle;whiteSpace=wrap;rounded=0;" parent="WIyWlLk6GJQsqaUBKTNV-1" vertex="1">
          <mxGeometry x="648" y="108" width="60" height="30" as="geometry" />
        </mxCell>
        <mxCell id="NURok4i2XgR6PJyntMXO-17" value="" style="endArrow=none;html=1;rounded=0;entryX=0.618;entryY=1.037;entryDx=0;entryDy=0;entryPerimeter=0;" parent="WIyWlLk6GJQsqaUBKTNV-1" edge="1" target="NURok4i2XgR6PJyntMXO-3">
          <mxGeometry width="50" height="50" relative="1" as="geometry">
            <mxPoint x="670" y="240" as="sourcePoint" />
            <mxPoint x="652.5" y="225" as="targetPoint" />
          </mxGeometry>
        </mxCell>
        <mxCell id="NURok4i2XgR6PJyntMXO-18" value="resultado" style="text;html=1;strokeColor=none;fillColor=none;align=center;verticalAlign=middle;whiteSpace=wrap;rounded=0;" parent="WIyWlLk6GJQsqaUBKTNV-1" vertex="1">
          <mxGeometry x="648" y="225" width="50" height="40" as="geometry" />
        </mxCell>
        <mxCell id="NURok4i2XgR6PJyntMXO-19" value="" style="endArrow=none;html=1;rounded=0;exitX=0.5;exitY=1;exitDx=0;exitDy=0;" parent="WIyWlLk6GJQsqaUBKTNV-1" source="vkgq-PPfLMgE2KBFRVzU-8" edge="1" target="NURok4i2XgR6PJyntMXO-20">
          <mxGeometry width="50" height="50" relative="1" as="geometry">
            <mxPoint x="460" y="230" as="sourcePoint" />
            <mxPoint x="625" y="255" as="targetPoint" />
          </mxGeometry>
        </mxCell>
        <mxCell id="NURok4i2XgR6PJyntMXO-20" value="prediccion" style="text;html=1;strokeColor=none;fillColor=none;align=center;verticalAlign=middle;whiteSpace=wrap;rounded=0;" parent="WIyWlLk6GJQsqaUBKTNV-1" vertex="1">
          <mxGeometry x="460" y="245" width="60" height="30" as="geometry" />
        </mxCell>
        <mxCell id="NURok4i2XgR6PJyntMXO-21" value="" style="endArrow=none;html=1;rounded=0;" parent="WIyWlLk6GJQsqaUBKTNV-1" edge="1">
          <mxGeometry width="50" height="50" relative="1" as="geometry">
            <mxPoint x="220" y="200" as="sourcePoint" />
            <mxPoint x="160" y="210" as="targetPoint" />
          </mxGeometry>
        </mxCell>
        <mxCell id="NURok4i2XgR6PJyntMXO-22" value="cedula" style="text;html=1;strokeColor=none;fillColor=none;align=center;verticalAlign=middle;whiteSpace=wrap;rounded=0;" parent="WIyWlLk6GJQsqaUBKTNV-1" vertex="1">
          <mxGeometry x="100" y="200" width="60" height="30" as="geometry" />
        </mxCell>
        <mxCell id="NURok4i2XgR6PJyntMXO-23" value="telefono" style="text;html=1;strokeColor=none;fillColor=none;align=center;verticalAlign=middle;whiteSpace=wrap;rounded=0;" parent="WIyWlLk6GJQsqaUBKTNV-1" vertex="1">
          <mxGeometry x="130" y="135" width="60" height="30" as="geometry" />
        </mxCell>
        <mxCell id="NURok4i2XgR6PJyntMXO-24" value="" style="endArrow=none;html=1;rounded=0;entryX=1;entryY=0.75;entryDx=0;entryDy=0;" parent="WIyWlLk6GJQsqaUBKTNV-1" target="NURok4i2XgR6PJyntMXO-23" edge="1">
          <mxGeometry width="50" height="50" relative="1" as="geometry">
            <mxPoint x="220" y="170" as="sourcePoint" />
            <mxPoint x="270" y="120" as="targetPoint" />
          </mxGeometry>
        </mxCell>
        <mxCell id="NURok4i2XgR6PJyntMXO-25" value="" style="endArrow=none;html=1;rounded=0;" parent="WIyWlLk6GJQsqaUBKTNV-1" edge="1">
          <mxGeometry width="50" height="50" relative="1" as="geometry">
            <mxPoint x="220" y="210" as="sourcePoint" />
            <mxPoint x="180" y="240" as="targetPoint" />
          </mxGeometry>
        </mxCell>
        <mxCell id="NURok4i2XgR6PJyntMXO-26" value="&lt;u&gt;mail&lt;/u&gt;" style="text;html=1;strokeColor=none;fillColor=none;align=center;verticalAlign=middle;whiteSpace=wrap;rounded=0;" parent="WIyWlLk6GJQsqaUBKTNV-1" vertex="1">
          <mxGeometry x="130" y="240" width="60" height="30" as="geometry" />
        </mxCell>
        <mxCell id="NURok4i2XgR6PJyntMXO-27" value="" style="endArrow=none;html=1;rounded=0;exitX=0.75;exitY=1;exitDx=0;exitDy=0;" parent="WIyWlLk6GJQsqaUBKTNV-1" edge="1">
          <mxGeometry width="50" height="50" relative="1" as="geometry">
            <mxPoint x="691.25" y="211.5" as="sourcePoint" />
            <mxPoint x="728.75" y="240" as="targetPoint" />
          </mxGeometry>
        </mxCell>
        <mxCell id="NURok4i2XgR6PJyntMXO-28" value="&lt;u&gt;idPartido&lt;/u&gt;" style="text;html=1;strokeColor=none;fillColor=none;align=center;verticalAlign=middle;whiteSpace=wrap;rounded=0;" parent="WIyWlLk6GJQsqaUBKTNV-1" vertex="1">
          <mxGeometry x="720" y="230" width="60" height="30" as="geometry" />
        </mxCell>
        <mxCell id="NURok4i2XgR6PJyntMXO-36" value="" style="endArrow=none;html=1;rounded=0;" parent="WIyWlLk6GJQsqaUBKTNV-1" edge="1">
          <mxGeometry width="50" height="50" relative="1" as="geometry">
            <mxPoint x="350" y="170" as="sourcePoint" />
            <mxPoint x="400" y="160" as="targetPoint" />
          </mxGeometry>
        </mxCell>
        <mxCell id="NURok4i2XgR6PJyntMXO-37" value="puntos" style="text;html=1;strokeColor=none;fillColor=none;align=center;verticalAlign=middle;whiteSpace=wrap;rounded=0;" parent="WIyWlLk6GJQsqaUBKTNV-1" vertex="1">
          <mxGeometry x="390" y="135" width="60" height="30" as="geometry" />
        </mxCell>
        <mxCell id="NURok4i2XgR6PJyntMXO-38" value="" style="endArrow=none;html=1;rounded=0;entryX=0.5;entryY=1;entryDx=0;entryDy=0;" parent="WIyWlLk6GJQsqaUBKTNV-1" edge="1" target="NURok4i2XgR6PJyntMXO-39">
          <mxGeometry width="50" height="50" relative="1" as="geometry">
            <mxPoint x="280" y="170" as="sourcePoint" />
            <mxPoint x="280" y="100" as="targetPoint" />
          </mxGeometry>
        </mxCell>
        <mxCell id="NURok4i2XgR6PJyntMXO-39" value="estan" style="rhombus;whiteSpace=wrap;html=1;" parent="WIyWlLk6GJQsqaUBKTNV-1" vertex="1">
          <mxGeometry x="248" y="-20" width="60" height="50" as="geometry" />
        </mxCell>
        <mxCell id="NURok4i2XgR6PJyntMXO-41" value="ranking" style="rounded=0;whiteSpace=wrap;html=1;" parent="WIyWlLk6GJQsqaUBKTNV-1" vertex="1">
          <mxGeometry x="213" y="-130" width="130" height="40" as="geometry" />
        </mxCell>
        <mxCell id="NURok4i2XgR6PJyntMXO-42" value="" style="endArrow=none;html=1;rounded=0;exitX=0.533;exitY=0;exitDx=0;exitDy=0;exitPerimeter=0;entryX=0.5;entryY=1;entryDx=0;entryDy=0;" parent="WIyWlLk6GJQsqaUBKTNV-1" edge="1" target="NURok4i2XgR6PJyntMXO-41">
          <mxGeometry width="50" height="50" relative="1" as="geometry">
            <mxPoint x="277.98" y="-20" as="sourcePoint" />
            <mxPoint x="272.5" y="-90" as="targetPoint" />
          </mxGeometry>
        </mxCell>
        <mxCell id="NoflLz0E7z9c1glnPjGm-0" value="administrador" style="rounded=0;whiteSpace=wrap;html=1;" vertex="1" parent="WIyWlLk6GJQsqaUBKTNV-1">
          <mxGeometry x="578" y="-138" width="130" height="40" as="geometry" />
        </mxCell>
        <mxCell id="NoflLz0E7z9c1glnPjGm-1" value="carga" style="rhombus;whiteSpace=wrap;html=1;" vertex="1" parent="WIyWlLk6GJQsqaUBKTNV-1">
          <mxGeometry x="608.5" y="-30" width="65" height="60" as="geometry" />
        </mxCell>
        <mxCell id="NoflLz0E7z9c1glnPjGm-6" value="" style="endArrow=none;html=1;rounded=0;" edge="1" parent="WIyWlLk6GJQsqaUBKTNV-1">
          <mxGeometry width="50" height="50" relative="1" as="geometry">
            <mxPoint x="680" y="168.5" as="sourcePoint" />
            <mxPoint x="680" y="130" as="targetPoint" />
          </mxGeometry>
        </mxCell>
        <mxCell id="NoflLz0E7z9c1glnPjGm-9" value="" style="endArrow=none;html=1;rounded=0;exitX=0.437;exitY=0.039;exitDx=0;exitDy=0;exitPerimeter=0;entryX=0.5;entryY=1;entryDx=0;entryDy=0;" edge="1" parent="WIyWlLk6GJQsqaUBKTNV-1" source="NURok4i2XgR6PJyntMXO-3" target="NoflLz0E7z9c1glnPjGm-1">
          <mxGeometry width="50" height="50" relative="1" as="geometry">
            <mxPoint x="712" y="100" as="sourcePoint" />
            <mxPoint x="644" y="30" as="targetPoint" />
            <Array as="points" />
          </mxGeometry>
        </mxCell>
        <mxCell id="NoflLz0E7z9c1glnPjGm-10" value="" style="endArrow=none;html=1;rounded=0;entryX=0.479;entryY=1.043;entryDx=0;entryDy=0;entryPerimeter=0;" edge="1" parent="WIyWlLk6GJQsqaUBKTNV-1" source="NoflLz0E7z9c1glnPjGm-1" target="NoflLz0E7z9c1glnPjGm-0">
          <mxGeometry width="50" height="50" relative="1" as="geometry">
            <mxPoint x="707" y="-20" as="sourcePoint" />
            <mxPoint x="639" y="-90" as="targetPoint" />
            <Array as="points" />
          </mxGeometry>
        </mxCell>
      </root>
    </mxGraphModel>
  </diagram>
</mxfile>
